<?xml version="1.0" encoding="utf-8" standalone="no"?>
<!DOCTYPE svg PUBLIC "-//W3C//DTD SVG 1.1//EN"
  "http://www.w3.org/Graphics/SVG/1.1/DTD/svg11.dtd">
<svg height="432pt" version="1.1" viewBox="0 0 432 432" width="432pt" xmlns="http://www.w3.org/2000/svg" xmlns:xlink="http://www.w3.org/1999/xlink">
 <metadata>
  <rdf:RDF xmlns:cc="http://creativecommons.org/ns#" xmlns:dc="http://purl.org/dc/elements/1.1/" xmlns:rdf="http://www.w3.org/1999/02/22-rdf-syntax-ns#">
   <cc:Work>
    <dc:type rdf:resource="http://purl.org/dc/dcmitype/StillImage"/>
    <dc:date>2021-09-20T11:57:19.536412</dc:date>
    <dc:format>image/svg+xml</dc:format>
    <dc:creator>
     <cc:Agent>
      <dc:title>Matplotlib v3.4.2, https://matplotlib.org/</dc:title>
     </cc:Agent>
    </dc:creator>
   </cc:Work>
  </rdf:RDF>
 </metadata>
 <defs>
  <style type="text/css">*{stroke-linecap:butt;stroke-linejoin:round;}</style>
 </defs>
 <g id="figure_1">
  <g id="patch_1">
   <path d="M 0 432 
L 432 432 
L 432 0 
L 0 0 
z
" style="fill:#ffffff;"/>
  </g>
  <g id="axes_1">
   <g id="patch_2">
    <path d="M 201.88024 408.31976 
L 428.99976 408.31976 
L 428.99976 21.96024 
L 201.88024 21.96024 
z
" style="fill:#ffffff;"/>
   </g>
   <g id="patch_3">
    <path clip-path="url(#pfcaf2b7205)" d="M 321.059446 408.31976 
L 321.059446 -19324.992724 
L 333.482701 -19324.992724 
L 333.482701 408.31976 
z
" style="fill:#2ca02c;opacity:0.5;stroke:#2ca02c;stroke-linejoin:miter;"/>
   </g>
   <g id="matplotlib.axis_1">
    <g id="xtick_1">
     <g id="line2d_1">
      <defs>
       <path d="M 0 0 
L 0 3.5 
" id="mab85b46661" style="stroke:#000000;stroke-width:0.8;"/>
      </defs>
      <g>
       <use style="stroke:#000000;stroke-width:0.8;" x="203.038527" xlink:href="#mab85b46661" y="408.31976"/>
      </g>
     </g>
     <g id="text_1">
      <!-- −1.0 -->
      <g transform="translate(186.040558 425.957573)scale(0.14 -0.14)">
       <defs>
        <path d="M 678 2272 
L 4684 2272 
L 4684 1741 
L 678 1741 
L 678 2272 
z
" id="DejaVuSans-2212" transform="scale(0.015625)"/>
        <path d="M 794 531 
L 1825 531 
L 1825 4091 
L 703 3866 
L 703 4441 
L 1819 4666 
L 2450 4666 
L 2450 531 
L 3481 531 
L 3481 0 
L 794 0 
L 794 531 
z
" id="DejaVuSans-31" transform="scale(0.015625)"/>
        <path d="M 684 794 
L 1344 794 
L 1344 0 
L 684 0 
L 684 794 
z
" id="DejaVuSans-2e" transform="scale(0.015625)"/>
        <path d="M 2034 4250 
Q 1547 4250 1301 3770 
Q 1056 3291 1056 2328 
Q 1056 1369 1301 889 
Q 1547 409 2034 409 
Q 2525 409 2770 889 
Q 3016 1369 3016 2328 
Q 3016 3291 2770 3770 
Q 2525 4250 2034 4250 
z
M 2034 4750 
Q 2819 4750 3233 4129 
Q 3647 3509 3647 2328 
Q 3647 1150 3233 529 
Q 2819 -91 2034 -91 
Q 1250 -91 836 529 
Q 422 1150 422 2328 
Q 422 3509 836 4129 
Q 1250 4750 2034 4750 
z
" id="DejaVuSans-30" transform="scale(0.015625)"/>
       </defs>
       <use xlink:href="#DejaVuSans-2212"/>
       <use x="83.789062" xlink:href="#DejaVuSans-31"/>
       <use x="147.412109" xlink:href="#DejaVuSans-2e"/>
       <use x="179.199219" xlink:href="#DejaVuSans-30"/>
      </g>
     </g>
    </g>
    <g id="xtick_2">
     <g id="line2d_2">
      <g>
       <use style="stroke:#000000;stroke-width:0.8;" x="265.1548" xlink:href="#mab85b46661" y="408.31976"/>
      </g>
     </g>
     <g id="text_2">
      <!-- −0.5 -->
      <g transform="translate(248.156832 425.957573)scale(0.14 -0.14)">
       <defs>
        <path d="M 691 4666 
L 3169 4666 
L 3169 4134 
L 1269 4134 
L 1269 2991 
Q 1406 3038 1543 3061 
Q 1681 3084 1819 3084 
Q 2600 3084 3056 2656 
Q 3513 2228 3513 1497 
Q 3513 744 3044 326 
Q 2575 -91 1722 -91 
Q 1428 -91 1123 -41 
Q 819 9 494 109 
L 494 744 
Q 775 591 1075 516 
Q 1375 441 1709 441 
Q 2250 441 2565 725 
Q 2881 1009 2881 1497 
Q 2881 1984 2565 2268 
Q 2250 2553 1709 2553 
Q 1456 2553 1204 2497 
Q 953 2441 691 2322 
L 691 4666 
z
" id="DejaVuSans-35" transform="scale(0.015625)"/>
       </defs>
       <use xlink:href="#DejaVuSans-2212"/>
       <use x="83.789062" xlink:href="#DejaVuSans-30"/>
       <use x="147.412109" xlink:href="#DejaVuSans-2e"/>
       <use x="179.199219" xlink:href="#DejaVuSans-35"/>
      </g>
     </g>
    </g>
    <g id="xtick_3">
     <g id="line2d_3">
      <g>
       <use style="stroke:#000000;stroke-width:0.8;" x="327.271073" xlink:href="#mab85b46661" y="408.31976"/>
      </g>
     </g>
     <g id="text_3">
      <!-- 0.0 -->
      <g transform="translate(316.138886 425.957573)scale(0.14 -0.14)">
       <use xlink:href="#DejaVuSans-30"/>
       <use x="63.623047" xlink:href="#DejaVuSans-2e"/>
       <use x="95.410156" xlink:href="#DejaVuSans-30"/>
      </g>
     </g>
    </g>
    <g id="xtick_4">
     <g id="line2d_4">
      <g>
       <use style="stroke:#000000;stroke-width:0.8;" x="389.387346" xlink:href="#mab85b46661" y="408.31976"/>
      </g>
     </g>
     <g id="text_4">
      <!-- 0.5 -->
      <g transform="translate(378.255159 425.957573)scale(0.14 -0.14)">
       <use xlink:href="#DejaVuSans-30"/>
       <use x="63.623047" xlink:href="#DejaVuSans-2e"/>
       <use x="95.410156" xlink:href="#DejaVuSans-35"/>
      </g>
     </g>
    </g>
   </g>
   <g id="matplotlib.axis_2">
    <g id="ytick_1">
     <g id="text_5">
      <!--  is_mPFCBLA2nonmPFCBLA -->
      <g transform="translate(2.620865 403.42652)scale(0.14 -0.14)">
       <defs>
        <path id="DejaVuSans-20" transform="scale(0.015625)"/>
        <path d="M 603 3500 
L 1178 3500 
L 1178 0 
L 603 0 
L 603 3500 
z
M 603 4863 
L 1178 4863 
L 1178 4134 
L 603 4134 
L 603 4863 
z
" id="DejaVuSans-69" transform="scale(0.015625)"/>
        <path d="M 2834 3397 
L 2834 2853 
Q 2591 2978 2328 3040 
Q 2066 3103 1784 3103 
Q 1356 3103 1142 2972 
Q 928 2841 928 2578 
Q 928 2378 1081 2264 
Q 1234 2150 1697 2047 
L 1894 2003 
Q 2506 1872 2764 1633 
Q 3022 1394 3022 966 
Q 3022 478 2636 193 
Q 2250 -91 1575 -91 
Q 1294 -91 989 -36 
Q 684 19 347 128 
L 347 722 
Q 666 556 975 473 
Q 1284 391 1588 391 
Q 1994 391 2212 530 
Q 2431 669 2431 922 
Q 2431 1156 2273 1281 
Q 2116 1406 1581 1522 
L 1381 1569 
Q 847 1681 609 1914 
Q 372 2147 372 2553 
Q 372 3047 722 3315 
Q 1072 3584 1716 3584 
Q 2034 3584 2315 3537 
Q 2597 3491 2834 3397 
z
" id="DejaVuSans-73" transform="scale(0.015625)"/>
        <path d="M 3263 -1063 
L 3263 -1509 
L -63 -1509 
L -63 -1063 
L 3263 -1063 
z
" id="DejaVuSans-5f" transform="scale(0.015625)"/>
        <path d="M 3328 2828 
Q 3544 3216 3844 3400 
Q 4144 3584 4550 3584 
Q 5097 3584 5394 3201 
Q 5691 2819 5691 2113 
L 5691 0 
L 5113 0 
L 5113 2094 
Q 5113 2597 4934 2840 
Q 4756 3084 4391 3084 
Q 3944 3084 3684 2787 
Q 3425 2491 3425 1978 
L 3425 0 
L 2847 0 
L 2847 2094 
Q 2847 2600 2669 2842 
Q 2491 3084 2119 3084 
Q 1678 3084 1418 2786 
Q 1159 2488 1159 1978 
L 1159 0 
L 581 0 
L 581 3500 
L 1159 3500 
L 1159 2956 
Q 1356 3278 1631 3431 
Q 1906 3584 2284 3584 
Q 2666 3584 2933 3390 
Q 3200 3197 3328 2828 
z
" id="DejaVuSans-6d" transform="scale(0.015625)"/>
        <path d="M 1259 4147 
L 1259 2394 
L 2053 2394 
Q 2494 2394 2734 2622 
Q 2975 2850 2975 3272 
Q 2975 3691 2734 3919 
Q 2494 4147 2053 4147 
L 1259 4147 
z
M 628 4666 
L 2053 4666 
Q 2838 4666 3239 4311 
Q 3641 3956 3641 3272 
Q 3641 2581 3239 2228 
Q 2838 1875 2053 1875 
L 1259 1875 
L 1259 0 
L 628 0 
L 628 4666 
z
" id="DejaVuSans-50" transform="scale(0.015625)"/>
        <path d="M 628 4666 
L 3309 4666 
L 3309 4134 
L 1259 4134 
L 1259 2759 
L 3109 2759 
L 3109 2228 
L 1259 2228 
L 1259 0 
L 628 0 
L 628 4666 
z
" id="DejaVuSans-46" transform="scale(0.015625)"/>
        <path d="M 4122 4306 
L 4122 3641 
Q 3803 3938 3442 4084 
Q 3081 4231 2675 4231 
Q 1875 4231 1450 3742 
Q 1025 3253 1025 2328 
Q 1025 1406 1450 917 
Q 1875 428 2675 428 
Q 3081 428 3442 575 
Q 3803 722 4122 1019 
L 4122 359 
Q 3791 134 3420 21 
Q 3050 -91 2638 -91 
Q 1578 -91 968 557 
Q 359 1206 359 2328 
Q 359 3453 968 4101 
Q 1578 4750 2638 4750 
Q 3056 4750 3426 4639 
Q 3797 4528 4122 4306 
z
" id="DejaVuSans-43" transform="scale(0.015625)"/>
        <path d="M 1259 2228 
L 1259 519 
L 2272 519 
Q 2781 519 3026 730 
Q 3272 941 3272 1375 
Q 3272 1813 3026 2020 
Q 2781 2228 2272 2228 
L 1259 2228 
z
M 1259 4147 
L 1259 2741 
L 2194 2741 
Q 2656 2741 2882 2914 
Q 3109 3088 3109 3444 
Q 3109 3797 2882 3972 
Q 2656 4147 2194 4147 
L 1259 4147 
z
M 628 4666 
L 2241 4666 
Q 2963 4666 3353 4366 
Q 3744 4066 3744 3513 
Q 3744 3084 3544 2831 
Q 3344 2578 2956 2516 
Q 3422 2416 3680 2098 
Q 3938 1781 3938 1306 
Q 3938 681 3513 340 
Q 3088 0 2303 0 
L 628 0 
L 628 4666 
z
" id="DejaVuSans-42" transform="scale(0.015625)"/>
        <path d="M 628 4666 
L 1259 4666 
L 1259 531 
L 3531 531 
L 3531 0 
L 628 0 
L 628 4666 
z
" id="DejaVuSans-4c" transform="scale(0.015625)"/>
        <path d="M 2188 4044 
L 1331 1722 
L 3047 1722 
L 2188 4044 
z
M 1831 4666 
L 2547 4666 
L 4325 0 
L 3669 0 
L 3244 1197 
L 1141 1197 
L 716 0 
L 50 0 
L 1831 4666 
z
" id="DejaVuSans-41" transform="scale(0.015625)"/>
        <path d="M 1228 531 
L 3431 531 
L 3431 0 
L 469 0 
L 469 531 
Q 828 903 1448 1529 
Q 2069 2156 2228 2338 
Q 2531 2678 2651 2914 
Q 2772 3150 2772 3378 
Q 2772 3750 2511 3984 
Q 2250 4219 1831 4219 
Q 1534 4219 1204 4116 
Q 875 4013 500 3803 
L 500 4441 
Q 881 4594 1212 4672 
Q 1544 4750 1819 4750 
Q 2544 4750 2975 4387 
Q 3406 4025 3406 3419 
Q 3406 3131 3298 2873 
Q 3191 2616 2906 2266 
Q 2828 2175 2409 1742 
Q 1991 1309 1228 531 
z
" id="DejaVuSans-32" transform="scale(0.015625)"/>
        <path d="M 3513 2113 
L 3513 0 
L 2938 0 
L 2938 2094 
Q 2938 2591 2744 2837 
Q 2550 3084 2163 3084 
Q 1697 3084 1428 2787 
Q 1159 2491 1159 1978 
L 1159 0 
L 581 0 
L 581 3500 
L 1159 3500 
L 1159 2956 
Q 1366 3272 1645 3428 
Q 1925 3584 2291 3584 
Q 2894 3584 3203 3211 
Q 3513 2838 3513 2113 
z
" id="DejaVuSans-6e" transform="scale(0.015625)"/>
        <path d="M 1959 3097 
Q 1497 3097 1228 2736 
Q 959 2375 959 1747 
Q 959 1119 1226 758 
Q 1494 397 1959 397 
Q 2419 397 2687 759 
Q 2956 1122 2956 1747 
Q 2956 2369 2687 2733 
Q 2419 3097 1959 3097 
z
M 1959 3584 
Q 2709 3584 3137 3096 
Q 3566 2609 3566 1747 
Q 3566 888 3137 398 
Q 2709 -91 1959 -91 
Q 1206 -91 779 398 
Q 353 888 353 1747 
Q 353 2609 779 3096 
Q 1206 3584 1959 3584 
z
" id="DejaVuSans-6f" transform="scale(0.015625)"/>
       </defs>
       <use xlink:href="#DejaVuSans-20"/>
       <use x="31.787109" xlink:href="#DejaVuSans-69"/>
       <use x="59.570312" xlink:href="#DejaVuSans-73"/>
       <use x="111.669922" xlink:href="#DejaVuSans-5f"/>
       <use x="161.669922" xlink:href="#DejaVuSans-6d"/>
       <use x="259.082031" xlink:href="#DejaVuSans-50"/>
       <use x="319.384766" xlink:href="#DejaVuSans-46"/>
       <use x="376.904297" xlink:href="#DejaVuSans-43"/>
       <use x="446.728516" xlink:href="#DejaVuSans-42"/>
       <use x="515.332031" xlink:href="#DejaVuSans-4c"/>
       <use x="573.294922" xlink:href="#DejaVuSans-41"/>
       <use x="641.703125" xlink:href="#DejaVuSans-32"/>
       <use x="705.326172" xlink:href="#DejaVuSans-6e"/>
       <use x="768.705078" xlink:href="#DejaVuSans-6f"/>
       <use x="829.886719" xlink:href="#DejaVuSans-6e"/>
       <use x="893.265625" xlink:href="#DejaVuSans-6d"/>
       <use x="990.677734" xlink:href="#DejaVuSans-50"/>
       <use x="1050.980469" xlink:href="#DejaVuSans-46"/>
       <use x="1108.5" xlink:href="#DejaVuSans-43"/>
       <use x="1178.324219" xlink:href="#DejaVuSans-42"/>
       <use x="1246.927734" xlink:href="#DejaVuSans-4c"/>
       <use x="1304.890625" xlink:href="#DejaVuSans-41"/>
      </g>
     </g>
    </g>
    <g id="ytick_2">
     <g id="text_6">
      <!--  is_mPFCBLA2mPFCBLA -->
      <g transform="translate(28.932115 384.704253)scale(0.14 -0.14)">
       <use xlink:href="#DejaVuSans-20"/>
       <use x="31.787109" xlink:href="#DejaVuSans-69"/>
       <use x="59.570312" xlink:href="#DejaVuSans-73"/>
       <use x="111.669922" xlink:href="#DejaVuSans-5f"/>
       <use x="161.669922" xlink:href="#DejaVuSans-6d"/>
       <use x="259.082031" xlink:href="#DejaVuSans-50"/>
       <use x="319.384766" xlink:href="#DejaVuSans-46"/>
       <use x="376.904297" xlink:href="#DejaVuSans-43"/>
       <use x="446.728516" xlink:href="#DejaVuSans-42"/>
       <use x="515.332031" xlink:href="#DejaVuSans-4c"/>
       <use x="573.294922" xlink:href="#DejaVuSans-41"/>
       <use x="641.703125" xlink:href="#DejaVuSans-32"/>
       <use x="705.326172" xlink:href="#DejaVuSans-6d"/>
       <use x="802.738281" xlink:href="#DejaVuSans-50"/>
       <use x="863.041016" xlink:href="#DejaVuSans-46"/>
       <use x="920.560547" xlink:href="#DejaVuSans-43"/>
       <use x="990.384766" xlink:href="#DejaVuSans-42"/>
       <use x="1058.988281" xlink:href="#DejaVuSans-4c"/>
       <use x="1116.951172" xlink:href="#DejaVuSans-41"/>
      </g>
     </g>
    </g>
    <g id="ytick_3">
     <g id="text_7">
      <!--  spikeThresh -->
      <g transform="translate(106.503052 365.981985)scale(0.14 -0.14)">
       <defs>
        <path d="M 1159 525 
L 1159 -1331 
L 581 -1331 
L 581 3500 
L 1159 3500 
L 1159 2969 
Q 1341 3281 1617 3432 
Q 1894 3584 2278 3584 
Q 2916 3584 3314 3078 
Q 3713 2572 3713 1747 
Q 3713 922 3314 415 
Q 2916 -91 2278 -91 
Q 1894 -91 1617 61 
Q 1341 213 1159 525 
z
M 3116 1747 
Q 3116 2381 2855 2742 
Q 2594 3103 2138 3103 
Q 1681 3103 1420 2742 
Q 1159 2381 1159 1747 
Q 1159 1113 1420 752 
Q 1681 391 2138 391 
Q 2594 391 2855 752 
Q 3116 1113 3116 1747 
z
" id="DejaVuSans-70" transform="scale(0.015625)"/>
        <path d="M 581 4863 
L 1159 4863 
L 1159 1991 
L 2875 3500 
L 3609 3500 
L 1753 1863 
L 3688 0 
L 2938 0 
L 1159 1709 
L 1159 0 
L 581 0 
L 581 4863 
z
" id="DejaVuSans-6b" transform="scale(0.015625)"/>
        <path d="M 3597 1894 
L 3597 1613 
L 953 1613 
Q 991 1019 1311 708 
Q 1631 397 2203 397 
Q 2534 397 2845 478 
Q 3156 559 3463 722 
L 3463 178 
Q 3153 47 2828 -22 
Q 2503 -91 2169 -91 
Q 1331 -91 842 396 
Q 353 884 353 1716 
Q 353 2575 817 3079 
Q 1281 3584 2069 3584 
Q 2775 3584 3186 3129 
Q 3597 2675 3597 1894 
z
M 3022 2063 
Q 3016 2534 2758 2815 
Q 2500 3097 2075 3097 
Q 1594 3097 1305 2825 
Q 1016 2553 972 2059 
L 3022 2063 
z
" id="DejaVuSans-65" transform="scale(0.015625)"/>
        <path d="M -19 4666 
L 3928 4666 
L 3928 4134 
L 2272 4134 
L 2272 0 
L 1638 0 
L 1638 4134 
L -19 4134 
L -19 4666 
z
" id="DejaVuSans-54" transform="scale(0.015625)"/>
        <path d="M 3513 2113 
L 3513 0 
L 2938 0 
L 2938 2094 
Q 2938 2591 2744 2837 
Q 2550 3084 2163 3084 
Q 1697 3084 1428 2787 
Q 1159 2491 1159 1978 
L 1159 0 
L 581 0 
L 581 4863 
L 1159 4863 
L 1159 2956 
Q 1366 3272 1645 3428 
Q 1925 3584 2291 3584 
Q 2894 3584 3203 3211 
Q 3513 2838 3513 2113 
z
" id="DejaVuSans-68" transform="scale(0.015625)"/>
        <path d="M 2631 2963 
Q 2534 3019 2420 3045 
Q 2306 3072 2169 3072 
Q 1681 3072 1420 2755 
Q 1159 2438 1159 1844 
L 1159 0 
L 581 0 
L 581 3500 
L 1159 3500 
L 1159 2956 
Q 1341 3275 1631 3429 
Q 1922 3584 2338 3584 
Q 2397 3584 2469 3576 
Q 2541 3569 2628 3553 
L 2631 2963 
z
" id="DejaVuSans-72" transform="scale(0.015625)"/>
       </defs>
       <use xlink:href="#DejaVuSans-20"/>
       <use x="31.787109" xlink:href="#DejaVuSans-73"/>
       <use x="83.886719" xlink:href="#DejaVuSans-70"/>
       <use x="147.363281" xlink:href="#DejaVuSans-69"/>
       <use x="175.146484" xlink:href="#DejaVuSans-6b"/>
       <use x="229.431641" xlink:href="#DejaVuSans-65"/>
       <use x="290.955078" xlink:href="#DejaVuSans-54"/>
       <use x="352.039062" xlink:href="#DejaVuSans-68"/>
       <use x="415.417969" xlink:href="#DejaVuSans-72"/>
       <use x="454.28125" xlink:href="#DejaVuSans-65"/>
       <use x="515.804688" xlink:href="#DejaVuSans-73"/>
       <use x="567.904297" xlink:href="#DejaVuSans-68"/>
      </g>
     </g>
    </g>
    <g id="ytick_4">
     <g id="text_8">
      <!--  spikeAmp -->
      <g transform="translate(122.04524 347.259718)scale(0.14 -0.14)">
       <use xlink:href="#DejaVuSans-20"/>
       <use x="31.787109" xlink:href="#DejaVuSans-73"/>
       <use x="83.886719" xlink:href="#DejaVuSans-70"/>
       <use x="147.363281" xlink:href="#DejaVuSans-69"/>
       <use x="175.146484" xlink:href="#DejaVuSans-6b"/>
       <use x="229.431641" xlink:href="#DejaVuSans-65"/>
       <use x="290.955078" xlink:href="#DejaVuSans-41"/>
       <use x="359.363281" xlink:href="#DejaVuSans-6d"/>
       <use x="456.775391" xlink:href="#DejaVuSans-70"/>
      </g>
     </g>
    </g>
    <g id="ytick_5">
     <g id="text_9">
      <!--  preML -->
      <g transform="translate(147.608365 328.53745)scale(0.14 -0.14)">
       <defs>
        <path d="M 628 4666 
L 1569 4666 
L 2759 1491 
L 3956 4666 
L 4897 4666 
L 4897 0 
L 4281 0 
L 4281 4097 
L 3078 897 
L 2444 897 
L 1241 4097 
L 1241 0 
L 628 0 
L 628 4666 
z
" id="DejaVuSans-4d" transform="scale(0.015625)"/>
       </defs>
       <use xlink:href="#DejaVuSans-20"/>
       <use x="31.787109" xlink:href="#DejaVuSans-70"/>
       <use x="95.263672" xlink:href="#DejaVuSans-72"/>
       <use x="134.126953" xlink:href="#DejaVuSans-65"/>
       <use x="195.650391" xlink:href="#DejaVuSans-4d"/>
       <use x="281.929688" xlink:href="#DejaVuSans-4c"/>
      </g>
     </g>
    </g>
    <g id="ytick_6">
     <g id="text_10">
      <!--  preDV -->
      <g transform="translate(147.37649 309.815183)scale(0.14 -0.14)">
       <defs>
        <path d="M 1259 4147 
L 1259 519 
L 2022 519 
Q 2988 519 3436 956 
Q 3884 1394 3884 2338 
Q 3884 3275 3436 3711 
Q 2988 4147 2022 4147 
L 1259 4147 
z
M 628 4666 
L 1925 4666 
Q 3281 4666 3915 4102 
Q 4550 3538 4550 2338 
Q 4550 1131 3912 565 
Q 3275 0 1925 0 
L 628 0 
L 628 4666 
z
" id="DejaVuSans-44" transform="scale(0.015625)"/>
        <path d="M 1831 0 
L 50 4666 
L 709 4666 
L 2188 738 
L 3669 4666 
L 4325 4666 
L 2547 0 
L 1831 0 
z
" id="DejaVuSans-56" transform="scale(0.015625)"/>
       </defs>
       <use xlink:href="#DejaVuSans-20"/>
       <use x="31.787109" xlink:href="#DejaVuSans-70"/>
       <use x="95.263672" xlink:href="#DejaVuSans-72"/>
       <use x="134.126953" xlink:href="#DejaVuSans-65"/>
       <use x="195.650391" xlink:href="#DejaVuSans-44"/>
       <use x="270.902344" xlink:href="#DejaVuSans-56"/>
      </g>
     </g>
    </g>
    <g id="ytick_7">
     <g id="text_11">
      <!--  preAP -->
      <g transform="translate(149.469927 291.092915)scale(0.14 -0.14)">
       <use xlink:href="#DejaVuSans-20"/>
       <use x="31.787109" xlink:href="#DejaVuSans-70"/>
       <use x="95.263672" xlink:href="#DejaVuSans-72"/>
       <use x="134.126953" xlink:href="#DejaVuSans-65"/>
       <use x="195.650391" xlink:href="#DejaVuSans-41"/>
       <use x="264.058594" xlink:href="#DejaVuSans-50"/>
      </g>
     </g>
    </g>
    <g id="ytick_8">
     <g id="text_12">
      <!--  postML -->
      <g transform="translate(140.31524 272.370648)scale(0.14 -0.14)">
       <defs>
        <path d="M 1172 4494 
L 1172 3500 
L 2356 3500 
L 2356 3053 
L 1172 3053 
L 1172 1153 
Q 1172 725 1289 603 
Q 1406 481 1766 481 
L 2356 481 
L 2356 0 
L 1766 0 
Q 1100 0 847 248 
Q 594 497 594 1153 
L 594 3053 
L 172 3053 
L 172 3500 
L 594 3500 
L 594 4494 
L 1172 4494 
z
" id="DejaVuSans-74" transform="scale(0.015625)"/>
       </defs>
       <use xlink:href="#DejaVuSans-20"/>
       <use x="31.787109" xlink:href="#DejaVuSans-70"/>
       <use x="95.263672" xlink:href="#DejaVuSans-6f"/>
       <use x="156.445312" xlink:href="#DejaVuSans-73"/>
       <use x="208.544922" xlink:href="#DejaVuSans-74"/>
       <use x="247.753906" xlink:href="#DejaVuSans-4d"/>
       <use x="334.033203" xlink:href="#DejaVuSans-4c"/>
      </g>
     </g>
    </g>
    <g id="ytick_9">
     <g id="text_13">
      <!--  postDV -->
      <g transform="translate(140.083365 253.64838)scale(0.14 -0.14)">
       <use xlink:href="#DejaVuSans-20"/>
       <use x="31.787109" xlink:href="#DejaVuSans-70"/>
       <use x="95.263672" xlink:href="#DejaVuSans-6f"/>
       <use x="156.445312" xlink:href="#DejaVuSans-73"/>
       <use x="208.544922" xlink:href="#DejaVuSans-74"/>
       <use x="247.753906" xlink:href="#DejaVuSans-44"/>
       <use x="323.005859" xlink:href="#DejaVuSans-56"/>
      </g>
     </g>
    </g>
    <g id="ytick_10">
     <g id="text_14">
      <!--  postAP -->
      <g transform="translate(142.176802 234.926113)scale(0.14 -0.14)">
       <use xlink:href="#DejaVuSans-20"/>
       <use x="31.787109" xlink:href="#DejaVuSans-70"/>
       <use x="95.263672" xlink:href="#DejaVuSans-6f"/>
       <use x="156.445312" xlink:href="#DejaVuSans-73"/>
       <use x="208.544922" xlink:href="#DejaVuSans-74"/>
       <use x="247.753906" xlink:href="#DejaVuSans-41"/>
       <use x="316.162109" xlink:href="#DejaVuSans-50"/>
      </g>
     </g>
    </g>
    <g id="ytick_11">
     <g id="text_15">
      <!--  logitSagRatio -->
      <g transform="translate(97.418365 216.203845)scale(0.14 -0.14)">
       <defs>
        <path d="M 603 4863 
L 1178 4863 
L 1178 0 
L 603 0 
L 603 4863 
z
" id="DejaVuSans-6c" transform="scale(0.015625)"/>
        <path d="M 2906 1791 
Q 2906 2416 2648 2759 
Q 2391 3103 1925 3103 
Q 1463 3103 1205 2759 
Q 947 2416 947 1791 
Q 947 1169 1205 825 
Q 1463 481 1925 481 
Q 2391 481 2648 825 
Q 2906 1169 2906 1791 
z
M 3481 434 
Q 3481 -459 3084 -895 
Q 2688 -1331 1869 -1331 
Q 1566 -1331 1297 -1286 
Q 1028 -1241 775 -1147 
L 775 -588 
Q 1028 -725 1275 -790 
Q 1522 -856 1778 -856 
Q 2344 -856 2625 -561 
Q 2906 -266 2906 331 
L 2906 616 
Q 2728 306 2450 153 
Q 2172 0 1784 0 
Q 1141 0 747 490 
Q 353 981 353 1791 
Q 353 2603 747 3093 
Q 1141 3584 1784 3584 
Q 2172 3584 2450 3431 
Q 2728 3278 2906 2969 
L 2906 3500 
L 3481 3500 
L 3481 434 
z
" id="DejaVuSans-67" transform="scale(0.015625)"/>
        <path d="M 3425 4513 
L 3425 3897 
Q 3066 4069 2747 4153 
Q 2428 4238 2131 4238 
Q 1616 4238 1336 4038 
Q 1056 3838 1056 3469 
Q 1056 3159 1242 3001 
Q 1428 2844 1947 2747 
L 2328 2669 
Q 3034 2534 3370 2195 
Q 3706 1856 3706 1288 
Q 3706 609 3251 259 
Q 2797 -91 1919 -91 
Q 1588 -91 1214 -16 
Q 841 59 441 206 
L 441 856 
Q 825 641 1194 531 
Q 1563 422 1919 422 
Q 2459 422 2753 634 
Q 3047 847 3047 1241 
Q 3047 1584 2836 1778 
Q 2625 1972 2144 2069 
L 1759 2144 
Q 1053 2284 737 2584 
Q 422 2884 422 3419 
Q 422 4038 858 4394 
Q 1294 4750 2059 4750 
Q 2388 4750 2728 4690 
Q 3069 4631 3425 4513 
z
" id="DejaVuSans-53" transform="scale(0.015625)"/>
        <path d="M 2194 1759 
Q 1497 1759 1228 1600 
Q 959 1441 959 1056 
Q 959 750 1161 570 
Q 1363 391 1709 391 
Q 2188 391 2477 730 
Q 2766 1069 2766 1631 
L 2766 1759 
L 2194 1759 
z
M 3341 1997 
L 3341 0 
L 2766 0 
L 2766 531 
Q 2569 213 2275 61 
Q 1981 -91 1556 -91 
Q 1019 -91 701 211 
Q 384 513 384 1019 
Q 384 1609 779 1909 
Q 1175 2209 1959 2209 
L 2766 2209 
L 2766 2266 
Q 2766 2663 2505 2880 
Q 2244 3097 1772 3097 
Q 1472 3097 1187 3025 
Q 903 2953 641 2809 
L 641 3341 
Q 956 3463 1253 3523 
Q 1550 3584 1831 3584 
Q 2591 3584 2966 3190 
Q 3341 2797 3341 1997 
z
" id="DejaVuSans-61" transform="scale(0.015625)"/>
        <path d="M 2841 2188 
Q 3044 2119 3236 1894 
Q 3428 1669 3622 1275 
L 4263 0 
L 3584 0 
L 2988 1197 
Q 2756 1666 2539 1819 
Q 2322 1972 1947 1972 
L 1259 1972 
L 1259 0 
L 628 0 
L 628 4666 
L 2053 4666 
Q 2853 4666 3247 4331 
Q 3641 3997 3641 3322 
Q 3641 2881 3436 2590 
Q 3231 2300 2841 2188 
z
M 1259 4147 
L 1259 2491 
L 2053 2491 
Q 2509 2491 2742 2702 
Q 2975 2913 2975 3322 
Q 2975 3731 2742 3939 
Q 2509 4147 2053 4147 
L 1259 4147 
z
" id="DejaVuSans-52" transform="scale(0.015625)"/>
       </defs>
       <use xlink:href="#DejaVuSans-20"/>
       <use x="31.787109" xlink:href="#DejaVuSans-6c"/>
       <use x="59.570312" xlink:href="#DejaVuSans-6f"/>
       <use x="120.751953" xlink:href="#DejaVuSans-67"/>
       <use x="184.228516" xlink:href="#DejaVuSans-69"/>
       <use x="212.011719" xlink:href="#DejaVuSans-74"/>
       <use x="251.220703" xlink:href="#DejaVuSans-53"/>
       <use x="314.697266" xlink:href="#DejaVuSans-61"/>
       <use x="375.976562" xlink:href="#DejaVuSans-67"/>
       <use x="439.453125" xlink:href="#DejaVuSans-52"/>
       <use x="506.685547" xlink:href="#DejaVuSans-61"/>
       <use x="567.964844" xlink:href="#DejaVuSans-74"/>
       <use x="607.173828" xlink:href="#DejaVuSans-69"/>
       <use x="634.957031" xlink:href="#DejaVuSans-6f"/>
      </g>
     </g>
    </g>
    <g id="ytick_12">
     <g id="text_16">
      <!--  logSpikeWidth -->
      <g transform="translate(90.543052 197.481578)scale(0.14 -0.14)">
       <defs>
        <path d="M 213 4666 
L 850 4666 
L 1831 722 
L 2809 4666 
L 3519 4666 
L 4500 722 
L 5478 4666 
L 6119 4666 
L 4947 0 
L 4153 0 
L 3169 4050 
L 2175 0 
L 1381 0 
L 213 4666 
z
" id="DejaVuSans-57" transform="scale(0.015625)"/>
        <path d="M 2906 2969 
L 2906 4863 
L 3481 4863 
L 3481 0 
L 2906 0 
L 2906 525 
Q 2725 213 2448 61 
Q 2172 -91 1784 -91 
Q 1150 -91 751 415 
Q 353 922 353 1747 
Q 353 2572 751 3078 
Q 1150 3584 1784 3584 
Q 2172 3584 2448 3432 
Q 2725 3281 2906 2969 
z
M 947 1747 
Q 947 1113 1208 752 
Q 1469 391 1925 391 
Q 2381 391 2643 752 
Q 2906 1113 2906 1747 
Q 2906 2381 2643 2742 
Q 2381 3103 1925 3103 
Q 1469 3103 1208 2742 
Q 947 2381 947 1747 
z
" id="DejaVuSans-64" transform="scale(0.015625)"/>
       </defs>
       <use xlink:href="#DejaVuSans-20"/>
       <use x="31.787109" xlink:href="#DejaVuSans-6c"/>
       <use x="59.570312" xlink:href="#DejaVuSans-6f"/>
       <use x="120.751953" xlink:href="#DejaVuSans-67"/>
       <use x="184.228516" xlink:href="#DejaVuSans-53"/>
       <use x="247.705078" xlink:href="#DejaVuSans-70"/>
       <use x="311.181641" xlink:href="#DejaVuSans-69"/>
       <use x="338.964844" xlink:href="#DejaVuSans-6b"/>
       <use x="393.25" xlink:href="#DejaVuSans-65"/>
       <use x="454.773438" xlink:href="#DejaVuSans-57"/>
       <use x="551.400391" xlink:href="#DejaVuSans-69"/>
       <use x="579.183594" xlink:href="#DejaVuSans-64"/>
       <use x="642.660156" xlink:href="#DejaVuSans-74"/>
       <use x="681.869141" xlink:href="#DejaVuSans-68"/>
      </g>
     </g>
    </g>
    <g id="ytick_13">
     <g id="text_17">
      <!--  logRm -->
      <g transform="translate(145.72274 178.75931)scale(0.14 -0.14)">
       <use xlink:href="#DejaVuSans-20"/>
       <use x="31.787109" xlink:href="#DejaVuSans-6c"/>
       <use x="59.570312" xlink:href="#DejaVuSans-6f"/>
       <use x="120.751953" xlink:href="#DejaVuSans-67"/>
       <use x="184.228516" xlink:href="#DejaVuSans-52"/>
       <use x="253.710938" xlink:href="#DejaVuSans-6d"/>
      </g>
     </g>
    </g>
    <g id="ytick_14">
     <g id="text_18">
      <!--  logOutputGain -->
      <g transform="translate(88.268052 160.037043)scale(0.14 -0.14)">
       <defs>
        <path d="M 2522 4238 
Q 1834 4238 1429 3725 
Q 1025 3213 1025 2328 
Q 1025 1447 1429 934 
Q 1834 422 2522 422 
Q 3209 422 3611 934 
Q 4013 1447 4013 2328 
Q 4013 3213 3611 3725 
Q 3209 4238 2522 4238 
z
M 2522 4750 
Q 3503 4750 4090 4092 
Q 4678 3434 4678 2328 
Q 4678 1225 4090 567 
Q 3503 -91 2522 -91 
Q 1538 -91 948 565 
Q 359 1222 359 2328 
Q 359 3434 948 4092 
Q 1538 4750 2522 4750 
z
" id="DejaVuSans-4f" transform="scale(0.015625)"/>
        <path d="M 544 1381 
L 544 3500 
L 1119 3500 
L 1119 1403 
Q 1119 906 1312 657 
Q 1506 409 1894 409 
Q 2359 409 2629 706 
Q 2900 1003 2900 1516 
L 2900 3500 
L 3475 3500 
L 3475 0 
L 2900 0 
L 2900 538 
Q 2691 219 2414 64 
Q 2138 -91 1772 -91 
Q 1169 -91 856 284 
Q 544 659 544 1381 
z
M 1991 3584 
L 1991 3584 
z
" id="DejaVuSans-75" transform="scale(0.015625)"/>
        <path d="M 3809 666 
L 3809 1919 
L 2778 1919 
L 2778 2438 
L 4434 2438 
L 4434 434 
Q 4069 175 3628 42 
Q 3188 -91 2688 -91 
Q 1594 -91 976 548 
Q 359 1188 359 2328 
Q 359 3472 976 4111 
Q 1594 4750 2688 4750 
Q 3144 4750 3555 4637 
Q 3966 4525 4313 4306 
L 4313 3634 
Q 3963 3931 3569 4081 
Q 3175 4231 2741 4231 
Q 1884 4231 1454 3753 
Q 1025 3275 1025 2328 
Q 1025 1384 1454 906 
Q 1884 428 2741 428 
Q 3075 428 3337 486 
Q 3600 544 3809 666 
z
" id="DejaVuSans-47" transform="scale(0.015625)"/>
       </defs>
       <use xlink:href="#DejaVuSans-20"/>
       <use x="31.787109" xlink:href="#DejaVuSans-6c"/>
       <use x="59.570312" xlink:href="#DejaVuSans-6f"/>
       <use x="120.751953" xlink:href="#DejaVuSans-67"/>
       <use x="184.228516" xlink:href="#DejaVuSans-4f"/>
       <use x="262.939453" xlink:href="#DejaVuSans-75"/>
       <use x="326.318359" xlink:href="#DejaVuSans-74"/>
       <use x="365.527344" xlink:href="#DejaVuSans-70"/>
       <use x="429.003906" xlink:href="#DejaVuSans-75"/>
       <use x="492.382812" xlink:href="#DejaVuSans-74"/>
       <use x="531.591797" xlink:href="#DejaVuSans-47"/>
       <use x="609.082031" xlink:href="#DejaVuSans-61"/>
       <use x="670.361328" xlink:href="#DejaVuSans-69"/>
       <use x="698.144531" xlink:href="#DejaVuSans-6e"/>
      </g>
     </g>
    </g>
    <g id="ytick_15">
     <g id="text_19">
      <!--  logCm -->
      <g transform="translate(145.674615 141.314776)scale(0.14 -0.14)">
       <use xlink:href="#DejaVuSans-20"/>
       <use x="31.787109" xlink:href="#DejaVuSans-6c"/>
       <use x="59.570312" xlink:href="#DejaVuSans-6f"/>
       <use x="120.751953" xlink:href="#DejaVuSans-67"/>
       <use x="184.228516" xlink:href="#DejaVuSans-43"/>
       <use x="254.052734" xlink:href="#DejaVuSans-6d"/>
      </g>
     </g>
    </g>
    <g id="ytick_16">
     <g id="text_20">
      <!--  logBurst -->
      <g transform="translate(132.07274 122.592508)scale(0.14 -0.14)">
       <use xlink:href="#DejaVuSans-20"/>
       <use x="31.787109" xlink:href="#DejaVuSans-6c"/>
       <use x="59.570312" xlink:href="#DejaVuSans-6f"/>
       <use x="120.751953" xlink:href="#DejaVuSans-67"/>
       <use x="184.228516" xlink:href="#DejaVuSans-42"/>
       <use x="252.832031" xlink:href="#DejaVuSans-75"/>
       <use x="316.210938" xlink:href="#DejaVuSans-72"/>
       <use x="357.324219" xlink:href="#DejaVuSans-73"/>
       <use x="409.423828" xlink:href="#DejaVuSans-74"/>
      </g>
     </g>
    </g>
    <g id="ytick_17">
     <g id="text_21">
      <!--  logAdapt -->
      <g transform="translate(127.912115 103.870241)scale(0.14 -0.14)">
       <use xlink:href="#DejaVuSans-20"/>
       <use x="31.787109" xlink:href="#DejaVuSans-6c"/>
       <use x="59.570312" xlink:href="#DejaVuSans-6f"/>
       <use x="120.751953" xlink:href="#DejaVuSans-67"/>
       <use x="184.228516" xlink:href="#DejaVuSans-41"/>
       <use x="250.886719" xlink:href="#DejaVuSans-64"/>
       <use x="314.363281" xlink:href="#DejaVuSans-61"/>
       <use x="375.642578" xlink:href="#DejaVuSans-70"/>
       <use x="439.119141" xlink:href="#DejaVuSans-74"/>
      </g>
     </g>
    </g>
    <g id="ytick_18">
     <g id="text_22">
      <!--  dHoriz -->
      <g transform="translate(145.455865 85.147973)scale(0.14 -0.14)">
       <defs>
        <path d="M 628 4666 
L 1259 4666 
L 1259 2753 
L 3553 2753 
L 3553 4666 
L 4184 4666 
L 4184 0 
L 3553 0 
L 3553 2222 
L 1259 2222 
L 1259 0 
L 628 0 
L 628 4666 
z
" id="DejaVuSans-48" transform="scale(0.015625)"/>
        <path d="M 353 3500 
L 3084 3500 
L 3084 2975 
L 922 459 
L 3084 459 
L 3084 0 
L 275 0 
L 275 525 
L 2438 3041 
L 353 3041 
L 353 3500 
z
" id="DejaVuSans-7a" transform="scale(0.015625)"/>
       </defs>
       <use xlink:href="#DejaVuSans-20"/>
       <use x="31.787109" xlink:href="#DejaVuSans-64"/>
       <use x="95.263672" xlink:href="#DejaVuSans-48"/>
       <use x="170.458984" xlink:href="#DejaVuSans-6f"/>
       <use x="231.640625" xlink:href="#DejaVuSans-72"/>
       <use x="272.753906" xlink:href="#DejaVuSans-69"/>
       <use x="300.537109" xlink:href="#DejaVuSans-7a"/>
      </g>
     </g>
    </g>
    <g id="ytick_19">
     <g id="text_23">
      <!--  dEuclid -->
      <g transform="translate(139.459927 66.425706)scale(0.14 -0.14)">
       <defs>
        <path d="M 628 4666 
L 3578 4666 
L 3578 4134 
L 1259 4134 
L 1259 2753 
L 3481 2753 
L 3481 2222 
L 1259 2222 
L 1259 531 
L 3634 531 
L 3634 0 
L 628 0 
L 628 4666 
z
" id="DejaVuSans-45" transform="scale(0.015625)"/>
        <path d="M 3122 3366 
L 3122 2828 
Q 2878 2963 2633 3030 
Q 2388 3097 2138 3097 
Q 1578 3097 1268 2742 
Q 959 2388 959 1747 
Q 959 1106 1268 751 
Q 1578 397 2138 397 
Q 2388 397 2633 464 
Q 2878 531 3122 666 
L 3122 134 
Q 2881 22 2623 -34 
Q 2366 -91 2075 -91 
Q 1284 -91 818 406 
Q 353 903 353 1747 
Q 353 2603 823 3093 
Q 1294 3584 2113 3584 
Q 2378 3584 2631 3529 
Q 2884 3475 3122 3366 
z
" id="DejaVuSans-63" transform="scale(0.015625)"/>
       </defs>
       <use xlink:href="#DejaVuSans-20"/>
       <use x="31.787109" xlink:href="#DejaVuSans-64"/>
       <use x="95.263672" xlink:href="#DejaVuSans-45"/>
       <use x="158.447266" xlink:href="#DejaVuSans-75"/>
       <use x="221.826172" xlink:href="#DejaVuSans-63"/>
       <use x="276.806641" xlink:href="#DejaVuSans-6c"/>
       <use x="304.589844" xlink:href="#DejaVuSans-69"/>
       <use x="332.373047" xlink:href="#DejaVuSans-64"/>
      </g>
     </g>
    </g>
    <g id="ytick_20">
     <g id="text_24">
      <!-- beta: APbregma -->
      <g transform="translate(82.079615 47.703438)scale(0.14 -0.14)">
       <defs>
        <path d="M 3116 1747 
Q 3116 2381 2855 2742 
Q 2594 3103 2138 3103 
Q 1681 3103 1420 2742 
Q 1159 2381 1159 1747 
Q 1159 1113 1420 752 
Q 1681 391 2138 391 
Q 2594 391 2855 752 
Q 3116 1113 3116 1747 
z
M 1159 2969 
Q 1341 3281 1617 3432 
Q 1894 3584 2278 3584 
Q 2916 3584 3314 3078 
Q 3713 2572 3713 1747 
Q 3713 922 3314 415 
Q 2916 -91 2278 -91 
Q 1894 -91 1617 61 
Q 1341 213 1159 525 
L 1159 0 
L 581 0 
L 581 4863 
L 1159 4863 
L 1159 2969 
z
" id="DejaVuSans-62" transform="scale(0.015625)"/>
        <path d="M 750 794 
L 1409 794 
L 1409 0 
L 750 0 
L 750 794 
z
M 750 3309 
L 1409 3309 
L 1409 2516 
L 750 2516 
L 750 3309 
z
" id="DejaVuSans-3a" transform="scale(0.015625)"/>
       </defs>
       <use xlink:href="#DejaVuSans-62"/>
       <use x="63.476562" xlink:href="#DejaVuSans-65"/>
       <use x="125" xlink:href="#DejaVuSans-74"/>
       <use x="164.208984" xlink:href="#DejaVuSans-61"/>
       <use x="225.488281" xlink:href="#DejaVuSans-3a"/>
       <use x="259.179688" xlink:href="#DejaVuSans-20"/>
       <use x="290.966797" xlink:href="#DejaVuSans-41"/>
       <use x="359.375" xlink:href="#DejaVuSans-50"/>
       <use x="419.677734" xlink:href="#DejaVuSans-62"/>
       <use x="483.154297" xlink:href="#DejaVuSans-72"/>
       <use x="522.017578" xlink:href="#DejaVuSans-65"/>
       <use x="583.541016" xlink:href="#DejaVuSans-67"/>
       <use x="647.017578" xlink:href="#DejaVuSans-6d"/>
       <use x="744.429688" xlink:href="#DejaVuSans-61"/>
      </g>
     </g>
    </g>
   </g>
   <g id="LineCollection_1">
    <path clip-path="url(#pfcaf2b7205)" d="M 305.365816 398.107614 
L 362.306878 398.107614 
" style="fill:none;stroke:#1f77b4;stroke-width:1.5;"/>
   </g>
   <g id="LineCollection_2">
    <path clip-path="url(#pfcaf2b7205)" d="M 323.963371 398.107614 
L 340.137931 398.107614 
" style="fill:none;stroke:#1f77b4;stroke-width:3;"/>
   </g>
   <g id="LineCollection_3">
    <path clip-path="url(#pfcaf2b7205)" d="M 327.159599 379.385347 
L 418.676145 379.385347 
" style="fill:none;stroke:#1f77b4;stroke-width:1.5;"/>
   </g>
   <g id="LineCollection_4">
    <path clip-path="url(#pfcaf2b7205)" d="M 357.243198 379.385347 
L 397.492385 379.385347 
" style="fill:none;stroke:#1f77b4;stroke-width:3;"/>
   </g>
   <g id="LineCollection_5">
    <path clip-path="url(#pfcaf2b7205)" d="M 305.576492 360.663079 
L 340.364081 360.663079 
" style="fill:none;stroke:#1f77b4;stroke-width:1.5;"/>
   </g>
   <g id="LineCollection_6">
    <path clip-path="url(#pfcaf2b7205)" d="M 319.191806 360.663079 
L 330.20356 360.663079 
" style="fill:none;stroke:#1f77b4;stroke-width:3;"/>
   </g>
   <g id="LineCollection_7">
    <path clip-path="url(#pfcaf2b7205)" d="M 321.652018 341.940812 
L 346.634125 341.940812 
" style="fill:none;stroke:#1f77b4;stroke-width:1.5;"/>
   </g>
   <g id="LineCollection_8">
    <path clip-path="url(#pfcaf2b7205)" d="M 327.597641 341.940812 
L 338.095188 341.940812 
" style="fill:none;stroke:#1f77b4;stroke-width:3;"/>
   </g>
   <g id="LineCollection_9">
    <path clip-path="url(#pfcaf2b7205)" d="M 216.959655 323.218544 
L 283.610445 323.218544 
" style="fill:none;stroke:#1f77b4;stroke-width:1.5;"/>
   </g>
   <g id="LineCollection_10">
    <path clip-path="url(#pfcaf2b7205)" d="M 235.261713 323.218544 
L 263.839277 323.218544 
" style="fill:none;stroke:#1f77b4;stroke-width:3;"/>
   </g>
   <g id="LineCollection_11">
    <path clip-path="url(#pfcaf2b7205)" d="M 290.864132 304.496277 
L 334.175045 304.496277 
" style="fill:none;stroke:#1f77b4;stroke-width:1.5;"/>
   </g>
   <g id="LineCollection_12">
    <path clip-path="url(#pfcaf2b7205)" d="M 306.736532 304.496277 
L 324.89284 304.496277 
" style="fill:none;stroke:#1f77b4;stroke-width:3;"/>
   </g>
   <g id="LineCollection_13">
    <path clip-path="url(#pfcaf2b7205)" d="M 311.935785 285.774009 
L 358.828119 285.774009 
" style="fill:none;stroke:#1f77b4;stroke-width:1.5;"/>
   </g>
   <g id="LineCollection_14">
    <path clip-path="url(#pfcaf2b7205)" d="M 326.117947 285.774009 
L 341.573015 285.774009 
" style="fill:none;stroke:#1f77b4;stroke-width:3;"/>
   </g>
   <g id="LineCollection_15">
    <path clip-path="url(#pfcaf2b7205)" d="M 324.688825 267.051742 
L 393.552914 267.051742 
" style="fill:none;stroke:#1f77b4;stroke-width:1.5;"/>
   </g>
   <g id="LineCollection_16">
    <path clip-path="url(#pfcaf2b7205)" d="M 340.780539 267.051742 
L 374.440472 267.051742 
" style="fill:none;stroke:#1f77b4;stroke-width:3;"/>
   </g>
   <g id="LineCollection_17">
    <path clip-path="url(#pfcaf2b7205)" d="M 308.787953 248.329474 
L 351.241923 248.329474 
" style="fill:none;stroke:#1f77b4;stroke-width:1.5;"/>
   </g>
   <g id="LineCollection_18">
    <path clip-path="url(#pfcaf2b7205)" d="M 323.41582 248.329474 
L 336.450721 248.329474 
" style="fill:none;stroke:#1f77b4;stroke-width:3;"/>
   </g>
   <g id="LineCollection_19">
    <path clip-path="url(#pfcaf2b7205)" d="M 309.54332 229.607207 
L 338.231832 229.607207 
" style="fill:none;stroke:#1f77b4;stroke-width:1.5;"/>
   </g>
   <g id="LineCollection_20">
    <path clip-path="url(#pfcaf2b7205)" d="M 320.172671 229.607207 
L 329.302083 229.607207 
" style="fill:none;stroke:#1f77b4;stroke-width:3;"/>
   </g>
   <g id="LineCollection_21">
    <path clip-path="url(#pfcaf2b7205)" d="M 323.519038 210.884939 
L 373.242955 210.884939 
" style="fill:none;stroke:#1f77b4;stroke-width:1.5;"/>
   </g>
   <g id="LineCollection_22">
    <path clip-path="url(#pfcaf2b7205)" d="M 334.651807 210.884939 
L 358.552258 210.884939 
" style="fill:none;stroke:#1f77b4;stroke-width:3;"/>
   </g>
   <g id="LineCollection_23">
    <path clip-path="url(#pfcaf2b7205)" d="M 315.381463 192.162672 
L 355.939901 192.162672 
" style="fill:none;stroke:#1f77b4;stroke-width:1.5;"/>
   </g>
   <g id="LineCollection_24">
    <path clip-path="url(#pfcaf2b7205)" d="M 326.734107 192.162672 
L 341.863426 192.162672 
" style="fill:none;stroke:#1f77b4;stroke-width:3;"/>
   </g>
   <g id="LineCollection_25">
    <path clip-path="url(#pfcaf2b7205)" d="M 280.83174 173.440404 
L 327.648517 173.440404 
" style="fill:none;stroke:#1f77b4;stroke-width:1.5;"/>
   </g>
   <g id="LineCollection_26">
    <path clip-path="url(#pfcaf2b7205)" d="M 291.391571 173.440404 
L 311.865794 173.440404 
" style="fill:none;stroke:#1f77b4;stroke-width:3;"/>
   </g>
   <g id="LineCollection_27">
    <path clip-path="url(#pfcaf2b7205)" d="M 305.583249 154.718137 
L 333.181699 154.718137 
" style="fill:none;stroke:#1f77b4;stroke-width:1.5;"/>
   </g>
   <g id="LineCollection_28">
    <path clip-path="url(#pfcaf2b7205)" d="M 314.843737 154.718137 
L 326.895837 154.718137 
" style="fill:none;stroke:#1f77b4;stroke-width:3;"/>
   </g>
   <g id="LineCollection_29">
    <path clip-path="url(#pfcaf2b7205)" d="M 323.022047 135.995869 
L 358.352451 135.995869 
" style="fill:none;stroke:#1f77b4;stroke-width:1.5;"/>
   </g>
   <g id="LineCollection_30">
    <path clip-path="url(#pfcaf2b7205)" d="M 333.150583 135.995869 
L 349.851151 135.995869 
" style="fill:none;stroke:#1f77b4;stroke-width:3;"/>
   </g>
   <g id="LineCollection_31">
    <path clip-path="url(#pfcaf2b7205)" d="M 288.431496 117.273602 
L 328.834035 117.273602 
" style="fill:none;stroke:#1f77b4;stroke-width:1.5;"/>
   </g>
   <g id="LineCollection_32">
    <path clip-path="url(#pfcaf2b7205)" d="M 298.262758 117.273602 
L 316.947149 117.273602 
" style="fill:none;stroke:#1f77b4;stroke-width:3;"/>
   </g>
   <g id="LineCollection_33">
    <path clip-path="url(#pfcaf2b7205)" d="M 310.573738 98.551334 
L 343.217757 98.551334 
" style="fill:none;stroke:#1f77b4;stroke-width:1.5;"/>
   </g>
   <g id="LineCollection_34">
    <path clip-path="url(#pfcaf2b7205)" d="M 321.952319 98.551334 
L 331.827246 98.551334 
" style="fill:none;stroke:#1f77b4;stroke-width:3;"/>
   </g>
   <g id="LineCollection_35">
    <path clip-path="url(#pfcaf2b7205)" d="M 298.490856 79.829067 
L 359.483047 79.829067 
" style="fill:none;stroke:#1f77b4;stroke-width:1.5;"/>
   </g>
   <g id="LineCollection_36">
    <path clip-path="url(#pfcaf2b7205)" d="M 318.890394 79.829067 
L 334.619195 79.829067 
" style="fill:none;stroke:#1f77b4;stroke-width:3;"/>
   </g>
   <g id="LineCollection_37">
    <path clip-path="url(#pfcaf2b7205)" d="M 212.203855 61.106799 
L 286.014483 61.106799 
" style="fill:none;stroke:#1f77b4;stroke-width:1.5;"/>
   </g>
   <g id="LineCollection_38">
    <path clip-path="url(#pfcaf2b7205)" d="M 235.74135 61.106799 
L 261.525533 61.106799 
" style="fill:none;stroke:#1f77b4;stroke-width:3;"/>
   </g>
   <g id="LineCollection_39">
    <path clip-path="url(#pfcaf2b7205)" d="M 287.475658 42.384532 
L 322.853726 42.384532 
" style="fill:none;stroke:#1f77b4;stroke-width:1.5;"/>
   </g>
   <g id="LineCollection_40">
    <path clip-path="url(#pfcaf2b7205)" d="M 297.924675 42.384532 
L 312.053235 42.384532 
" style="fill:none;stroke:#1f77b4;stroke-width:3;"/>
   </g>
   <g id="line2d_5">
    <defs>
     <path d="M 0 2.25 
C 0.596707 2.25 1.169055 2.012926 1.59099 1.59099 
C 2.012926 1.169055 2.25 0.596707 2.25 0 
C 2.25 -0.596707 2.012926 -1.169055 1.59099 -1.59099 
C 1.169055 -2.012926 0.596707 -2.25 0 -2.25 
C -0.596707 -2.25 -1.169055 -2.012926 -1.59099 -1.59099 
C -2.012926 -1.169055 -2.25 -0.596707 -2.25 0 
C -2.25 0.596707 -2.012926 1.169055 -1.59099 1.59099 
C -1.169055 2.012926 -0.596707 2.25 0 2.25 
z
" id="m9a15102a5c" style="stroke:#1f77b4;"/>
    </defs>
    <g clip-path="url(#pfcaf2b7205)">
     <use style="fill:#ffffff;stroke:#1f77b4;" x="329.507399" xlink:href="#m9a15102a5c" y="398.107614"/>
    </g>
   </g>
   <g id="line2d_6">
    <g clip-path="url(#pfcaf2b7205)">
     <use style="fill:#ffffff;stroke:#1f77b4;" x="377.370935" xlink:href="#m9a15102a5c" y="379.385347"/>
    </g>
   </g>
   <g id="line2d_7">
    <g clip-path="url(#pfcaf2b7205)">
     <use style="fill:#ffffff;stroke:#1f77b4;" x="326.075737" xlink:href="#m9a15102a5c" y="360.663079"/>
    </g>
   </g>
   <g id="line2d_8">
    <g clip-path="url(#pfcaf2b7205)">
     <use style="fill:#ffffff;stroke:#1f77b4;" x="332.22356" xlink:href="#m9a15102a5c" y="341.940812"/>
    </g>
   </g>
   <g id="line2d_9">
    <g clip-path="url(#pfcaf2b7205)">
     <use style="fill:#ffffff;stroke:#1f77b4;" x="249.650535" xlink:href="#m9a15102a5c" y="323.218544"/>
    </g>
   </g>
   <g id="line2d_10">
    <g clip-path="url(#pfcaf2b7205)">
     <use style="fill:#ffffff;stroke:#1f77b4;" x="316.960526" xlink:href="#m9a15102a5c" y="304.496277"/>
    </g>
   </g>
   <g id="line2d_11">
    <g clip-path="url(#pfcaf2b7205)">
     <use style="fill:#ffffff;stroke:#1f77b4;" x="331.219117" xlink:href="#m9a15102a5c" y="285.774009"/>
    </g>
   </g>
   <g id="line2d_12">
    <g clip-path="url(#pfcaf2b7205)">
     <use style="fill:#ffffff;stroke:#1f77b4;" x="357.208853" xlink:href="#m9a15102a5c" y="267.051742"/>
    </g>
   </g>
   <g id="line2d_13">
    <g clip-path="url(#pfcaf2b7205)">
     <use style="fill:#ffffff;stroke:#1f77b4;" x="328.30373" xlink:href="#m9a15102a5c" y="248.329474"/>
    </g>
   </g>
   <g id="line2d_14">
    <g clip-path="url(#pfcaf2b7205)">
     <use style="fill:#ffffff;stroke:#1f77b4;" x="325.95046" xlink:href="#m9a15102a5c" y="229.607207"/>
    </g>
   </g>
   <g id="line2d_15">
    <g clip-path="url(#pfcaf2b7205)">
     <use style="fill:#ffffff;stroke:#1f77b4;" x="346.401633" xlink:href="#m9a15102a5c" y="210.884939"/>
    </g>
   </g>
   <g id="line2d_16">
    <g clip-path="url(#pfcaf2b7205)">
     <use style="fill:#ffffff;stroke:#1f77b4;" x="332.195178" xlink:href="#m9a15102a5c" y="192.162672"/>
    </g>
   </g>
   <g id="line2d_17">
    <g clip-path="url(#pfcaf2b7205)">
     <use style="fill:#ffffff;stroke:#1f77b4;" x="301.510322" xlink:href="#m9a15102a5c" y="173.440404"/>
    </g>
   </g>
   <g id="line2d_18">
    <g clip-path="url(#pfcaf2b7205)">
     <use style="fill:#ffffff;stroke:#1f77b4;" x="321.814837" xlink:href="#m9a15102a5c" y="154.718137"/>
    </g>
   </g>
   <g id="line2d_19">
    <g clip-path="url(#pfcaf2b7205)">
     <use style="fill:#ffffff;stroke:#1f77b4;" x="341.486445" xlink:href="#m9a15102a5c" y="135.995869"/>
    </g>
   </g>
   <g id="line2d_20">
    <g clip-path="url(#pfcaf2b7205)">
     <use style="fill:#ffffff;stroke:#1f77b4;" x="307.405114" xlink:href="#m9a15102a5c" y="117.273602"/>
    </g>
   </g>
   <g id="line2d_21">
    <g clip-path="url(#pfcaf2b7205)">
     <use style="fill:#ffffff;stroke:#1f77b4;" x="327.146741" xlink:href="#m9a15102a5c" y="98.551334"/>
    </g>
   </g>
   <g id="line2d_22">
    <g clip-path="url(#pfcaf2b7205)">
     <use style="fill:#ffffff;stroke:#1f77b4;" x="327.185242" xlink:href="#m9a15102a5c" y="79.829067"/>
    </g>
   </g>
   <g id="line2d_23">
    <g clip-path="url(#pfcaf2b7205)">
     <use style="fill:#ffffff;stroke:#1f77b4;" x="248.83628" xlink:href="#m9a15102a5c" y="61.106799"/>
    </g>
   </g>
   <g id="line2d_24">
    <g clip-path="url(#pfcaf2b7205)">
     <use style="fill:#ffffff;stroke:#1f77b4;" x="304.901476" xlink:href="#m9a15102a5c" y="42.384532"/>
    </g>
   </g>
   <g id="patch_4">
    <path d="M 201.88024 408.31976 
L 428.99976 408.31976 
" style="fill:none;stroke:#000000;stroke-linecap:square;stroke-linejoin:miter;stroke-width:0.8;"/>
   </g>
   <g id="patch_5">
    <path d="M 201.88024 21.96024 
L 428.99976 21.96024 
" style="fill:none;stroke:#000000;stroke-linecap:square;stroke-linejoin:miter;stroke-width:0.8;"/>
   </g>
   <g id="text_25">
    <!-- 90.0% HDI -->
    <g transform="translate(272.9475 15.96024)scale(0.16 -0.16)">
     <defs>
      <path d="M 703 97 
L 703 672 
Q 941 559 1184 500 
Q 1428 441 1663 441 
Q 2288 441 2617 861 
Q 2947 1281 2994 2138 
Q 2813 1869 2534 1725 
Q 2256 1581 1919 1581 
Q 1219 1581 811 2004 
Q 403 2428 403 3163 
Q 403 3881 828 4315 
Q 1253 4750 1959 4750 
Q 2769 4750 3195 4129 
Q 3622 3509 3622 2328 
Q 3622 1225 3098 567 
Q 2575 -91 1691 -91 
Q 1453 -91 1209 -44 
Q 966 3 703 97 
z
M 1959 2075 
Q 2384 2075 2632 2365 
Q 2881 2656 2881 3163 
Q 2881 3666 2632 3958 
Q 2384 4250 1959 4250 
Q 1534 4250 1286 3958 
Q 1038 3666 1038 3163 
Q 1038 2656 1286 2365 
Q 1534 2075 1959 2075 
z
" id="DejaVuSans-39" transform="scale(0.015625)"/>
      <path d="M 4653 2053 
Q 4381 2053 4226 1822 
Q 4072 1591 4072 1178 
Q 4072 772 4226 539 
Q 4381 306 4653 306 
Q 4919 306 5073 539 
Q 5228 772 5228 1178 
Q 5228 1588 5073 1820 
Q 4919 2053 4653 2053 
z
M 4653 2450 
Q 5147 2450 5437 2106 
Q 5728 1763 5728 1178 
Q 5728 594 5436 251 
Q 5144 -91 4653 -91 
Q 4153 -91 3862 251 
Q 3572 594 3572 1178 
Q 3572 1766 3864 2108 
Q 4156 2450 4653 2450 
z
M 1428 4353 
Q 1159 4353 1004 4120 
Q 850 3888 850 3481 
Q 850 3069 1003 2837 
Q 1156 2606 1428 2606 
Q 1700 2606 1854 2837 
Q 2009 3069 2009 3481 
Q 2009 3884 1853 4118 
Q 1697 4353 1428 4353 
z
M 4250 4750 
L 4750 4750 
L 1831 -91 
L 1331 -91 
L 4250 4750 
z
M 1428 4750 
Q 1922 4750 2215 4408 
Q 2509 4066 2509 3481 
Q 2509 2891 2217 2550 
Q 1925 2209 1428 2209 
Q 931 2209 642 2551 
Q 353 2894 353 3481 
Q 353 4063 643 4406 
Q 934 4750 1428 4750 
z
" id="DejaVuSans-25" transform="scale(0.015625)"/>
      <path d="M 628 4666 
L 1259 4666 
L 1259 0 
L 628 0 
L 628 4666 
z
" id="DejaVuSans-49" transform="scale(0.015625)"/>
     </defs>
     <use xlink:href="#DejaVuSans-39"/>
     <use x="63.623047" xlink:href="#DejaVuSans-30"/>
     <use x="127.246094" xlink:href="#DejaVuSans-2e"/>
     <use x="159.033203" xlink:href="#DejaVuSans-30"/>
     <use x="222.65625" xlink:href="#DejaVuSans-25"/>
     <use x="317.675781" xlink:href="#DejaVuSans-20"/>
     <use x="349.462891" xlink:href="#DejaVuSans-48"/>
     <use x="424.658203" xlink:href="#DejaVuSans-44"/>
     <use x="501.660156" xlink:href="#DejaVuSans-49"/>
    </g>
   </g>
  </g>
 </g>
 <defs>
  <clipPath id="pfcaf2b7205">
   <rect height="386.35952" width="227.11952" x="201.88024" y="21.96024"/>
  </clipPath>
 </defs>
</svg>
